<!DOCTYPE svg PUBLIC "-//W3C//DTD SVG 1.1//EN" "http://www.w3.org/Graphics/SVG/1.1/DTD/svg11.dtd">

<!-- Uploaded to: SVG Repo, www.svgrepo.com, Transformed by: SVG Repo Mixer Tools -->
<svg fill="#000000" height="800px" width="800px" version="1.1" id="Layer_1" xmlns="http://www.w3.org/2000/svg" xmlns:xlink="http://www.w3.org/1999/xlink" viewBox="0 0 362.667 362.667" xml:space="preserve" transform="matrix(1, 0, 0, -1, 0, 0)">

<g id="SVGRepo_bgCarrier" stroke-width="0"/>

<g id="SVGRepo_tracerCarrier" stroke-linecap="round" stroke-linejoin="round"/>

<g id="SVGRepo_iconCarrier"> <g> <g> <path d="M352,0c-5.867,0-10.667,4.8-10.667,10.667v315.627L18.24,3.093C13.973-0.96,7.253-0.853,3.2,3.307 c-3.947,4.16-3.947,10.667,0,14.827l323.093,323.2H10.667C4.8,341.333,0,346.133,0,352c0,5.867,4.8,10.667,10.667,10.667H352 c5.867,0,10.667-4.8,10.667-10.667V10.667C362.667,4.8,357.867,0,352,0z"/> </g> </g> </g>

</svg>