<!DOCTYPE svg PUBLIC "-//W3C//DTD SVG 1.1//EN" "http://www.w3.org/Graphics/SVG/1.1/DTD/svg11.dtd">
<!-- Uploaded to: SVG Repo, www.svgrepo.com, Transformed by: SVG Repo Mixer Tools -->
<svg fill="#ffffff" height="800px" width="800px" version="1.1" id="Layer_1" xmlns="http://www.w3.org/2000/svg" xmlns:xlink="http://www.w3.org/1999/xlink" viewBox="0 0 362.667 362.667" xml:space="preserve" transform="matrix(-1, 0, 0, -1, 0, 0)" stroke="#ffffff">
<g id="SVGRepo_bgCarrier" stroke-width="0"/>
<g id="SVGRepo_tracerCarrier" stroke-linecap="round" stroke-linejoin="round"/>
<g id="SVGRepo_iconCarrier"> <g> <g> <path d="M352,341.333H36.373l323.2-323.093c4.053-4.267,3.947-10.987-0.213-15.04c-4.16-3.947-10.667-3.947-14.827,0 l-323.2,323.093V10.667C21.333,4.8,16.533,0,10.667,0C4.8,0,0,4.8,0,10.667V352c0,5.867,4.8,10.667,10.667,10.667H352 c5.867,0,10.667-4.8,10.667-10.667C362.667,346.133,357.867,341.333,352,341.333z"/> </g> </g> </g>
</svg>